<?xml version="1.0" encoding="utf-8"?>
<!-- Generator: Adobe Illustrator 19.2.1, SVG Export Plug-In . SVG Version: 6.00 Build 0)  -->
<svg version="1.1" id="Layer_1" xmlns="http://www.w3.org/2000/svg" xmlns:xlink="http://www.w3.org/1999/xlink" x="0px" y="0px"
	 viewBox="0 0 200.2 25.6" style="enable-background:new 0 0 200.2 25.6;" xml:space="preserve">
<style type="text/css">
	.st0{fill:#541816;}
	.st1{fill:url(#wrapper_1_);}
	.st2{fill:#BE1E2D;}
	.st3{fill:#D7A2A7;}
	.st4{fill:#FFFFFF;}
</style>
<g>
	<path class="st0" d="M0,0h5.4c2.7,0,4.9,0.7,6.6,2.1c1.7,1.4,2.5,3.1,2.5,5.3c0,1.7-0.5,3.2-1.6,4.5c-1.1,1.3-2.8,2.2-5.1,2.8
		L15,25.6h-3.9L4.2,15H3.4v10.5H0V0z M3.4,3.1V12c5,0.1,7.5-1.4,7.5-4.5c0-1.1-0.3-2-0.9-2.7C9.5,4.2,8.7,3.7,7.7,3.5
		C6.7,3.2,5.3,3.1,3.4,3.1z"/>
	<path class="st0" d="M18.8,0h13.8v3.5H22.2v6.4h10.5v3.5H22.2v8.8h10.5v3.5H18.8V0z"/>
	<path class="st0" d="M36.1,0l18.5,17.2V0h3.4v25.5L39.5,8.4l0,17.1h-3.4L36.1,0z"/>
	<path class="st0" d="M72-0.2l11.8,25.8h-3.6L77.3,19H66.7l-2.9,6.5h-3.5L72-0.2z M71.9,7l-4,9.1h8L71.9,7z"/>
	<path class="st0" d="M118.9,0h3.4v22.1h8.1v3.5h-11.5V0z"/>
	<path class="st0" d="M132.6,12.7c0-3.5,1.3-6.4,3.8-8.9s5.6-3.7,9.2-3.7c3.5,0,6.5,1.2,9,3.7c2.5,2.5,3.8,5.5,3.8,8.9
		c0,3.6-1.2,6.7-3.7,9.2c-2.5,2.5-5.6,3.8-9.2,3.8c-3.6,0-6.6-1.3-9.2-3.8C133.9,19.3,132.6,16.3,132.6,12.7z M155.1,12.8
		c0-2.7-0.9-4.9-2.8-6.7c-1.9-1.8-4.2-2.7-6.9-2.7c-2.6,0-4.8,0.9-6.7,2.8c-1.8,1.8-2.8,4.1-2.8,6.7c0,2.6,0.9,4.8,2.8,6.7
		c1.9,1.8,4.2,2.7,7,2.7c2.5,0,4.7-0.9,6.5-2.8C154.2,17.6,155.1,15.4,155.1,12.8z"/>
	<path class="st0" d="M160.7,0h3.6l7.8,18.1L180,0h3.6l-11.5,25.6L160.7,0z"/>
	<path class="st0" d="M186.3,0h13.8v3.5h-10.5v6.4h10.5v3.5h-10.5v8.8h10.5v3.5h-13.8V0z"/>
</g>
<g>

		<linearGradient id="wrapper_1_" gradientUnits="userSpaceOnUse" x1="98.5164" y1="509.6328" x2="105.8201" y2="496.9825" gradientTransform="matrix(1 0 0 -1 0 519.9069)">
		<stop  offset="0" style="stop-color:#F8A06D"/>
		<stop  offset="1" style="stop-color:#FFC96D"/>
	</linearGradient>
	<path id="wrapper_5_" class="st1" d="M101.8,12.5h-7.2l1.4,9.3h5.8h5.8l1.4-9.3H101.8z M97.2,21.3C97.2,21.3,97.1,21.3,97.2,21.3
		c-0.1,0-0.2-0.1-0.2-0.2l-1.1-7.8c0-0.1,0.1-0.2,0.2-0.2c0.1,0,0.2,0.1,0.2,0.2l1.1,7.8C97.3,21.2,97.3,21.3,97.2,21.3z M98.2,21.3
		C98.1,21.3,98.1,21.3,98.2,21.3c-0.1,0-0.2-0.1-0.2-0.2l-1-7.8c0-0.1,0.1-0.2,0.2-0.2c0.1,0,0.2,0.1,0.2,0.2l1,7.8
		C98.3,21.2,98.2,21.3,98.2,21.3z M99.1,21.4C99.1,21.4,99.1,21.4,99.1,21.4c-0.1,0-0.2-0.1-0.2-0.2l-0.8-7.9c0-0.1,0.1-0.2,0.2-0.2
		c0.1,0,0.2,0.1,0.2,0.2l0.8,7.9C99.3,21.3,99.2,21.4,99.1,21.4z M100,21.4C100,21.4,99.9,21.4,100,21.4c-0.1,0-0.2-0.1-0.2-0.2
		l-0.5-7.9c0-0.1,0.1-0.2,0.2-0.2c0.1,0,0.2,0.1,0.2,0.2l0.5,7.9C100.1,21.3,100.1,21.4,100,21.4z M100.9,21.4
		C100.9,21.4,100.9,21.4,100.9,21.4c-0.1,0-0.2-0.1-0.2-0.2l-0.3-7.9c0-0.1,0.1-0.2,0.2-0.2c0.1,0,0.2,0.1,0.2,0.2l0.3,7.9
		C101.1,21.3,101,21.4,100.9,21.4z M102,21.1c0,0.1-0.1,0.2-0.2,0.2s-0.2-0.1-0.2-0.2v-7.8c0-0.1,0.1-0.2,0.2-0.2s0.2,0.1,0.2,0.2
		V21.1z M102.8,21.3c0,0.1-0.1,0.2-0.2,0.2c0,0,0,0,0,0c-0.1,0-0.2-0.1-0.2-0.2l0.3-7.9c0-0.1,0.1-0.2,0.2-0.2
		c0.1,0,0.2,0.1,0.2,0.2L102.8,21.3z M103.8,21.3c0,0.1-0.1,0.2-0.2,0.2c0,0,0,0,0,0c-0.1,0-0.2-0.1-0.2-0.2l0.5-7.9
		c0-0.1,0.1-0.2,0.2-0.2c0.1,0,0.2,0.1,0.2,0.2L103.8,21.3z M104.5,21.5C104.5,21.5,104.5,21.5,104.5,21.5c-0.1,0-0.2-0.1-0.2-0.2
		l0.8-7.9c0-0.1,0.1-0.2,0.2-0.2c0.1,0,0.2,0.1,0.2,0.2l-0.8,7.9C104.7,21.4,104.6,21.5,104.5,21.5z M105.4,21.4
		C105.4,21.4,105.4,21.4,105.4,21.4c-0.1,0-0.2-0.1-0.2-0.2l1-7.8c0-0.1,0.1-0.2,0.2-0.2c0.1,0,0.2,0.1,0.2,0.2l-1,7.8
		C105.6,21.3,105.5,21.4,105.4,21.4z M106.6,21.2c0,0.1-0.1,0.2-0.2,0.2c0,0,0,0,0,0c-0.1,0-0.2-0.1-0.2-0.2l1.1-7.8
		c0-0.1,0.1-0.2,0.2-0.2c0.1,0,0.2,0.1,0.2,0.2L106.6,21.2z"/>
	<path class="st2" d="M96.6,14.5L95,14l-1.2-0.5l-0.6-0.4l-0.6-0.5L92,12l-0.3-0.7l-0.2-0.7l0.1-1l0.2-0.6l0.4-0.5l0.6-0.3L93.3,8
		l0.2-0.2l-0.1-0.3c0,0-0.2-0.8,0.1-1.2s0.4-0.7,1-0.9c0.6-0.1,2.7-0.5,2.7-0.5l-0.1-0.6L97.1,4c0,0-0.1-0.2,0.1-0.5
		s0.1-0.5,0.4-0.9s0.3-0.5,0.7-0.8c0.4-0.3,0.4-0.3,0.4-0.3l0.5-0.3L99.5,1l0.3-0.1l0.4-0.1l0.3-0.1l0.3-0.1l0.4-0.1l0.3-0.1l0.3,0
		l0.3,0l0.4,0c0,0,0.3,0,0.3,0c0,0,0.4,0,0.4,0s0.7,0.1,1.1,0.3s0.5,0.3,0.7,0.5s0.2,0.2,0.2,0.2s-0.2,0-0.4,0
		c-0.2,0-0.7,0.2-0.8,0.2c-0.1,0.1-0.6,0.3-0.7,0.6c-0.1,0.3-0.1,0.6,0,0.7c0.1,0.1,0.3,0.4,0.6,0.4c0.3,0,0.8,0,0.8,0l0.6-0.1
		c0,0,0.3-0.1,0.7,0c0.5,0,0.6,0,0.9,0.1c0.3,0.1,0.8,0.1,1.3,0.3c0.5,0.2,1.1,0.5,1.1,0.5s0.5,0.3,0.8,0.6s0.7,0.6,0.8,1
		c0.1,0.4,0.3,0.5,0.2,0.9c-0.1,0.4,0,0.3-0.2,0.6c-0.2,0.3-0.3,0.6-0.6,0.8c-0.3,0.2-0.6,0.3-0.6,0.3l0.1,0.2l0.2,0.2l0.5,0.2
		c0,0,0.5,0.2,0.9,0.6c0.4,0.3,0.6,0.5,0.6,0.9s0.1,0.2,0,0.5s-0.2,0.4-0.4,0.5s-0.3,0.2-0.6,0.2s-0.5,0-0.5,0l0.1,0.4
		c0,0,0.1,0.2,0.1,0.4c0,0.2-0.1,0.4-0.1,0.4l-0.1,0.4c0,0,0,0.2-0.4,0.4c-0.4,0.1-0.5,0.1-0.9,0.1c-0.4,0-0.9-0.1-0.9-0.1l-0.2,0.1
		l-0.1,0.2c0,0,0.1,0.1,0,0.4c-0.1,0.3-0.1,0.4-0.4,0.6c-0.3,0.1-0.8,0.3-1.2,0.3c-0.4,0-1.6-0.1-1.6-0.1l-1.1-0.2l-1.3-0.4
		l-0.5-0.2l-0.2,0.1l-0.6,0.2l-0.7,0.2c0,0-1,0.1-1.2,0c-0.3,0-0.8,0-1.3-0.1S96.6,14.5,96.6,14.5L96.6,14.5"/>
	<g>
		<path class="st3" d="M112,10.2c-0.3-0.6-0.9-1-1.5-1.4c-0.2-0.1-0.5-0.3-0.8-0.4c0.7-0.4,1.4-1.2,1.4-2c0-1-0.9-1.8-1.7-2.3
			c-1-0.6-2.2-1-3.3-1.1c-0.7-0.1-1.3,0.1-2,0.1c-0.3,0-0.7-0.2-0.8-0.4c-0.2-0.4,0.3-0.7,0.6-0.9c0.4-0.3,0.9-0.3,1.4-0.3
			c0.1,0,0.2-0.1,0.1-0.1c-1.1-1.7-3.7-1.3-5.3-0.8c-1.7,0.5-4,2.3-3.1,4.3c-0.8,0.1-1.6,0.3-2.3,0.4c-0.5,0.1-1,0.3-1.3,0.7
			C93,6.5,93,7.2,93.3,7.8c-0.5,0.3-1,0.3-1.4,0.8c-0.4,0.4-0.6,1-0.6,1.6c-0.1,1.3,0.7,2.5,1.8,3.2c1.3,0.8,2.9,1.1,4.4,1.4
			c1.4,0.3,2.9,0.4,4.2-0.3c1,0.4,2,0.6,3,0.8c0.9,0.2,2,0.3,2.9-0.1c0.6-0.3,0.8-0.8,0.6-1.2c1.1,0.1,2.7,0.3,2.7-1.2
			c0-0.3-0.1-0.6-0.2-0.8C111.5,12,112.5,11.3,112,10.2z"/>
		<path class="st3" d="M107.5,10.1c0.8,0.3,2.2,0.7,2.8,1.5c0.8,0.1,1.7-0.3,1.5-1.2c-0.1-0.6-0.6-0.9-1.1-1.2
			c-0.8-0.5-1.7-0.9-2.6-1.1c-0.2,0-0.1-0.2,0.1-0.2c0.4,0.1,0.9,0.2,1.3,0.4c0.7-0.3,1.3-1,1.4-1.8c0.1-0.8-0.4-1.5-1-1.9
			c-1.2-1-2.8-1.5-4.3-1.5c-0.6,0-2.5,0.5-2.6-0.6c-0.1-0.9,1.2-1.3,2-1.3c-1-1.4-3.3-1-4.7-0.6c-1.6,0.5-4.1,2.2-3.1,4.2
			c0,0,0,0.1,0,0.1c0,0,0,0-0.1,0c-0.7,0.1-1.4,0.3-2.1,0.4c-0.7,0.1-1.4,0.2-1.7,1c-0.2,0.5-0.1,1,0,1.5c0,0,0,0,0,0.1
			c0.3,0.7,0.8,1.3,1.3,1.7c1.9,1.7,3.8,3.3,6.3,3.9c0.2,0,0.1,0.2-0.1,0.2c-1.4-0.3-2.7-0.9-3.9-1.7c-1.1-0.8-2.3-1.8-3.2-2.8
			c-0.2-0.3-0.5-0.6-0.6-1c-0.4,0.2-0.8,0.3-1.2,0.6c-0.5,0.4-0.7,1.1-0.7,1.7c0,1.3,0.9,2.4,2,3c1.2,0.7,2.7,1,4,1.2
			c1.4,0.2,2.8,0.3,4.1-0.3c0,0,0,0,0,0c0,0,0,0,0,0c0,0,0,0,0,0c0,0,0,0,0.1,0c1.3,0.6,2.9,0.9,4.3,1c0.4,0,0.9,0,1.3-0.2
			c0.4-0.2,0.4-0.2,0.5-0.6c0.1-0.4,0-0.6-0.3-0.9c-0.7-0.7-1.7-0.6-2.6-0.5c-0.2,0-0.1-0.2,0-0.2c1-0.1,2.2-0.1,2.9,0.7
			c0.1,0.1,0.1,0.2,0.2,0.2c0.5,0,0.9,0.1,1.4,0.1c0.8,0,1.3-0.5,1.2-1.3c0-0.2-0.1-0.4-0.3-0.6c0,0,0,0,0-0.1
			c-0.6-0.8-1.9-1.2-2.7-1.5C107.3,10.3,107.4,10.1,107.5,10.1z"/>
	</g>
	<g>
		<path class="st4" d="M102,12.4c-0.5-0.4-1-0.8-1.6-1.3c-1.3-1-2.6-2.2-2.9-3.8c-0.2-0.8,0.1-1.8,0.8-2.3c0.4-0.3,1-0.3,1.5-0.2
			c0.5,0.1,1,0.4,1.3,0.8c0.3,0.3,0.9,1.2,0.8,1.7C102,7,102.5,6,102.8,5.7c0.4-0.4,0.8-0.7,1.3-0.8c0.5-0.1,1.1-0.1,1.5,0.2
			c0.7,0.5,0.9,1.4,0.8,2.3c-0.3,1.6-1.6,2.7-2.9,3.8C103.1,11.5,102.5,12,102,12.4"/>
	</g>
</g>
<g>
	<path class="st0" d="M89.1,24.9v0.5c-0.2,0.1-0.4,0.2-0.6,0.2c-0.3,0-0.5-0.1-0.7-0.3s-0.3-0.5-0.3-0.7c0-0.3,0.1-0.6,0.3-0.8
		c0.2-0.2,0.5-0.3,0.8-0.3c0.2,0,0.4,0,0.6,0.1v0.5c-0.2-0.1-0.4-0.2-0.6-0.2c-0.2,0-0.3,0.1-0.5,0.2c-0.1,0.1-0.2,0.3-0.2,0.4
		c0,0.2,0.1,0.3,0.2,0.5c0.1,0.1,0.3,0.2,0.4,0.2C88.7,25.1,88.9,25.1,89.1,24.9z"/>
	<path class="st0" d="M91.4,23.5v0.4c0.1-0.2,0.2-0.3,0.3-0.4c0.1-0.1,0.2-0.1,0.3-0.1c0,0,0.1,0,0.2,0l-0.1,0.4c-0.1,0-0.1,0-0.2,0
		c-0.1,0-0.3,0.1-0.4,0.2s-0.1,0.2-0.1,0.4v1.1H91v-2H91.4z"/>
	<path class="st0" d="M96,24.6h-1.7c0,0.2,0.1,0.4,0.3,0.5c0.1,0.1,0.3,0.1,0.4,0.1c0.2,0,0.4-0.1,0.6-0.3l0.3,0.2
		c-0.2,0.3-0.5,0.5-0.9,0.5c-0.3,0-0.5-0.1-0.7-0.3c-0.2-0.2-0.3-0.5-0.3-0.8c0-0.3,0.1-0.5,0.3-0.7c0.2-0.2,0.4-0.3,0.7-0.3
		c0.3,0,0.5,0.1,0.7,0.3C95.9,24,96,24.2,96,24.6z M94.4,24.2h1.2c-0.1-0.3-0.3-0.4-0.6-0.4C94.7,23.8,94.5,24,94.4,24.2z"/>
	<path class="st0" d="M99.6,23.5h0.4v2h-0.4v-0.4c-0.2,0.3-0.5,0.5-0.8,0.5c-0.3,0-0.5-0.1-0.7-0.3c-0.2-0.2-0.3-0.5-0.3-0.8
		c0-0.3,0.1-0.5,0.3-0.7c0.2-0.2,0.4-0.3,0.7-0.3c0.2,0,0.3,0,0.4,0.1c0.1,0.1,0.2,0.2,0.3,0.3V23.5z M99.7,24.5
		c0-0.2-0.1-0.3-0.2-0.5c-0.1-0.1-0.3-0.2-0.5-0.2c-0.2,0-0.3,0.1-0.5,0.2s-0.2,0.3-0.2,0.5c0,0.2,0.1,0.4,0.2,0.5
		c0.1,0.1,0.3,0.2,0.5,0.2c0.2,0,0.3-0.1,0.5-0.2S99.7,24.7,99.7,24.5z"/>
	<path class="st0" d="M102.3,22.9h0.4v0.6h0.4v0.4h-0.4v1.6h-0.4v-1.6h-0.3v-0.4h0.3V22.9z"/>
	<path class="st0" d="M104.8,22.8c0-0.1,0-0.2,0.1-0.2c0.1-0.1,0.1-0.1,0.2-0.1c0.1,0,0.2,0,0.2,0.1c0.1,0.1,0.1,0.1,0.1,0.2
		c0,0.1,0,0.2-0.1,0.2c-0.1,0.1-0.1,0.1-0.2,0.1c-0.1,0-0.2,0-0.2-0.1C104.9,23,104.8,22.9,104.8,22.8z M105,23.5h0.4v2H105V23.5z"
		/>
	<path class="st0" d="M107.3,24.5c0-0.3,0.1-0.5,0.3-0.7c0.2-0.2,0.5-0.3,0.7-0.3c0.3,0,0.5,0.1,0.7,0.3c0.2,0.2,0.3,0.5,0.3,0.7
		c0,0.3-0.1,0.5-0.3,0.8c-0.2,0.2-0.5,0.3-0.7,0.3c-0.3,0-0.5-0.1-0.8-0.3C107.4,25,107.3,24.8,107.3,24.5z M109.1,24.5
		c0-0.2-0.1-0.3-0.2-0.5c-0.1-0.1-0.3-0.2-0.5-0.2c-0.2,0-0.3,0.1-0.5,0.2c-0.1,0.1-0.2,0.3-0.2,0.5c0,0.2,0.1,0.3,0.2,0.4
		s0.3,0.2,0.5,0.2c0.2,0,0.3-0.1,0.5-0.2C109,24.8,109.1,24.7,109.1,24.5z"/>
	<path class="st0" d="M111.3,25.5v-2h0.4v0.3c0.1-0.1,0.2-0.2,0.3-0.3c0.1-0.1,0.2-0.1,0.3-0.1c0.2,0,0.3,0.1,0.5,0.2
		c0.1,0.1,0.2,0.3,0.2,0.4v1.5h-0.4v-1.3c0-0.1,0-0.2-0.1-0.3c-0.1-0.1-0.2-0.1-0.3-0.1c-0.1,0-0.3,0.1-0.4,0.2
		c-0.1,0.1-0.2,0.3-0.2,0.4v1.1H111.3z"/>
	<path class="st0" d="M116.2,23.7l-0.3,0.3c-0.1-0.1-0.1-0.1-0.2-0.1c-0.1,0-0.1,0-0.2,0c-0.2,0-0.3,0.1-0.3,0.2
		c0,0.1,0.1,0.2,0.3,0.3c0.2,0.1,0.4,0.2,0.5,0.3c0.1,0.1,0.1,0.2,0.1,0.4c0,0.2-0.1,0.3-0.2,0.4c-0.1,0.1-0.3,0.2-0.5,0.2
		c-0.3,0-0.5-0.1-0.7-0.4l0.3-0.2c0.1,0.1,0.2,0.2,0.4,0.2c0.1,0,0.2,0,0.2-0.1s0.1-0.1,0.1-0.2c0-0.1-0.1-0.2-0.3-0.3
		c-0.2-0.1-0.4-0.2-0.5-0.3c-0.1-0.1-0.1-0.2-0.1-0.3c0-0.2,0.1-0.3,0.2-0.4c0.1-0.1,0.3-0.2,0.5-0.2S115.9,23.5,116.2,23.7z"/>
</g>
</svg>
