<?xml version="1.0" encoding="utf-8"?>
<!-- Generator: Adobe Illustrator 19.2.1, SVG Export Plug-In . SVG Version: 6.00 Build 0)  -->
<svg version="1.1" xmlns="http://www.w3.org/2000/svg" xmlns:xlink="http://www.w3.org/1999/xlink" x="0px" y="0px"
	 viewBox="0 0 182.6 25.5" style="enable-background:new 0 0 182.6 25.5;" xml:space="preserve">
<style type="text/css">
	.st0{fill:#541816;}
	.st1{fill:url(#wrapper_1_);}
	.st2{fill:#BE1E2D;}
	.st3{fill:#D7A2A7;}
	.st4{fill:#FFFFFF;}
</style>
<g id="Layer_1">
</g>
<g id="Layer_11">
	<g>
		<path class="st0" d="M0.5,1h4.9c2.4,0,4.4,0.6,6,1.9c1.5,1.2,2.3,2.8,2.3,4.8c0,1.6-0.5,2.9-1.5,4.1c-1,1.2-2.5,2-4.7,2.5l6.6,9.9
			h-3.6l-6.3-9.6H3.6v9.6H0.5V1z M3.6,3.8v8.1c4.6,0.1,6.9-1.3,6.9-4.1c0-1-0.3-1.8-0.8-2.4C9.1,4.8,8.4,4.3,7.5,4.1
			C6.6,3.9,5.3,3.8,3.6,3.8z"/>
		<path class="st0" d="M17.6,1h12.6v3.2h-9.5v5.8h9.5v3.1h-9.5v8h9.5v3.1H17.6V1z"/>
		<path class="st0" d="M33.3,0l16.8,17.7V1h3.1v24.3L36.4,7.7v16.5h-3.1V0z"/>
		<path class="st0" d="M65.9,0.1l10.7,24.1h-3.2l-2.6-5.9h-9.6l-2.6,5.9h-3.2L65.9,0.1z M65.9,7.3l-3.6,8.3h7.3L65.9,7.3z"/>
		<path class="st0" d="M108.6,1h3.1v20.1h7.4v3.1h-10.5V1z"/>
		<path class="st0" d="M120.5,12.4c0-3.4,1.2-6.2,3.7-8.6s5.4-3.6,8.9-3.6c3.4,0,6.3,1.2,8.7,3.6c2.4,2.4,3.7,5.3,3.7,8.6
			c0,3.5-1.2,6.5-3.6,8.9c-2.4,2.4-5.4,3.6-8.9,3.6c-3.5,0-6.4-1.2-8.8-3.7C121.7,18.9,120.5,15.9,120.5,12.4z M142.2,12.6
			c0-2.6-0.9-4.7-2.7-6.5c-1.8-1.8-4-2.6-6.7-2.6c-2.5,0-4.6,0.9-6.4,2.7c-1.8,1.8-2.7,3.9-2.7,6.4c0,2.5,0.9,4.7,2.8,6.4
			c1.8,1.8,4.1,2.6,6.7,2.6c2.4,0,4.6-0.9,6.3-2.7S142.2,15.1,142.2,12.6z"/>
		<path class="st0" d="M146.6,1h3.3l7.1,16.5L164.2,1h3.3L157,25L146.6,1z"/>
		<path class="st0" d="M169.9,1h12.6v3.2H173v5.8h9.5v3.1H173v8h9.5v3.1h-12.6V1z"/>
	</g>
	
		<linearGradient id="wrapper_1_" gradientUnits="userSpaceOnUse" x1="88.376" y1="1559.7131" x2="95.0166" y2="1548.2114" gradientTransform="matrix(1 0 0 -1 0 1569.1095)">
		<stop  offset="0" style="stop-color:#F8A06D"/>
		<stop  offset="1" style="stop-color:#FFC96D"/>
	</linearGradient>
	<path id="wrapper" class="st1" d="M91.4,11.5h-6.6l1.3,8.5h5.3h5.3l1.3-8.5H91.4z M87.2,19.4C87.1,19.4,87.1,19.4,87.2,19.4
		c-0.1,0-0.2-0.1-0.2-0.1l-1-7.1c0-0.1,0-0.2,0.1-0.2c0.1,0,0.2,0.1,0.2,0.1l1,7.1C87.3,19.3,87.2,19.4,87.2,19.4z M88,19.4
		C88,19.4,88,19.4,88,19.4c-0.1,0-0.2-0.1-0.2-0.1L87,12.2c0-0.1,0.1-0.2,0.1-0.2c0.1,0,0.2,0.1,0.2,0.1l0.9,7.1
		C88.2,19.3,88.1,19.4,88,19.4z M88.9,19.5C88.9,19.5,88.9,19.5,88.9,19.5c-0.1,0-0.2-0.1-0.2-0.2L88,12.1c0-0.1,0.1-0.2,0.1-0.2
		c0.1,0,0.2,0.1,0.2,0.2l0.7,7.2C89,19.4,89,19.5,88.9,19.5z M89.7,19.5C89.7,19.5,89.7,19.5,89.7,19.5c-0.1,0-0.2-0.1-0.2-0.2
		l-0.4-7.2c0-0.1,0.1-0.2,0.2-0.2c0.1,0,0.2,0.1,0.2,0.2l0.4,7.2C89.8,19.4,89.8,19.5,89.7,19.5z M90.6,19.5
		C90.6,19.5,90.6,19.5,90.6,19.5c-0.1,0-0.2-0.1-0.2-0.2l-0.3-7.2c0-0.1,0.1-0.2,0.2-0.2c0.1,0,0.2,0.1,0.2,0.2l0.3,7.2
		C90.7,19.4,90.7,19.5,90.6,19.5z M91.5,19.2c0,0.1-0.1,0.2-0.2,0.2s-0.2-0.1-0.2-0.2v-7.1c0-0.1,0.1-0.2,0.2-0.2s0.2,0.1,0.2,0.2
		V19.2z M92.3,19.4c0,0.1-0.1,0.2-0.2,0.2c0,0,0,0,0,0c-0.1,0-0.2-0.1-0.2-0.2l0.3-7.2c0-0.1,0.1-0.2,0.2-0.2c0.1,0,0.2,0.1,0.2,0.2
		L92.3,19.4z M93.2,19.4c0,0.1-0.1,0.2-0.2,0.2c0,0,0,0,0,0c-0.1,0-0.2-0.1-0.2-0.2l0.4-7.2c0-0.1,0.1-0.2,0.2-0.2
		c0.1,0,0.2,0.1,0.2,0.2L93.2,19.4z M93.8,19.6C93.8,19.6,93.8,19.6,93.8,19.6c-0.1,0-0.2-0.1-0.2-0.2l0.7-7.2
		c0-0.1,0.1-0.2,0.2-0.2c0.1,0,0.2,0.1,0.1,0.2L94,19.4C94,19.5,93.9,19.6,93.8,19.6z M94.7,19.5C94.6,19.5,94.6,19.5,94.7,19.5
		c-0.1,0-0.2-0.1-0.2-0.2l0.9-7.1c0-0.1,0.1-0.2,0.2-0.1c0.1,0,0.2,0.1,0.1,0.2l-0.9,7.1C94.8,19.4,94.7,19.5,94.7,19.5z M95.7,19.3
		c0,0.1-0.1,0.1-0.2,0.1c0,0,0,0,0,0c-0.1,0-0.2-0.1-0.1-0.2l1-7.1c0-0.1,0.1-0.2,0.2-0.1c0.1,0,0.2,0.1,0.1,0.2L95.7,19.3z"/>
	<path class="st2" d="M86.7,13.2l-1.4-0.4l-1.1-0.4l-0.6-0.3L83,11.6L82.4,11l-0.3-0.6l-0.2-0.6L82,8.9l0.2-0.6l0.4-0.5l0.5-0.3
		l0.6-0.2l0.1-0.2l-0.1-0.2c0,0-0.2-0.7,0-1.1c0.2-0.4,0.4-0.7,1-0.8s2.5-0.5,2.5-0.5L87.1,4l0-0.3c0,0,0-0.2,0-0.5
		c0.1-0.3,0.1-0.5,0.4-0.8c0.2-0.3,0.3-0.4,0.7-0.7s0.4-0.3,0.4-0.3l0.4-0.3l0.3-0.2l0.2-0.1l0.3-0.1l0.3-0.1l0.3-0.1l0.4-0.1
		l0.3-0.1l0.3,0l0.3,0l0.3,0c0,0,0.3,0,0.3,0s0.3,0,0.3,0s0.6,0.1,1,0.3s0.5,0.3,0.6,0.4c0.1,0.2,0.2,0.2,0.2,0.2s-0.2,0-0.4,0
		c-0.2,0-0.6,0.2-0.8,0.2c-0.1,0.1-0.6,0.3-0.6,0.6s-0.1,0.5,0,0.7c0.1,0.1,0.3,0.3,0.6,0.4c0.3,0,0.7,0,0.7,0l0.5-0.1
		c0,0,0.3-0.1,0.7,0c0.4,0,0.5,0,0.8,0.1c0.3,0.1,0.7,0.1,1.1,0.3c0.4,0.2,1,0.5,1,0.5s0.5,0.3,0.7,0.5c0.3,0.2,0.6,0.6,0.7,0.9
		c0.1,0.3,0.2,0.5,0.2,0.8s0,0.3-0.2,0.6c-0.2,0.3-0.3,0.5-0.6,0.7c-0.3,0.2-0.5,0.3-0.5,0.3l0.1,0.2L98.8,8l0.4,0.2
		c0,0,0.5,0.2,0.8,0.5c0.3,0.3,0.6,0.5,0.6,0.8c0,0.4,0.1,0.2,0,0.4s-0.2,0.4-0.4,0.5s-0.3,0.2-0.5,0.2c-0.3,0-0.5,0-0.5,0l0.1,0.3
		c0,0,0.1,0.2,0.1,0.4s-0.1,0.4-0.1,0.4l-0.1,0.4c0,0,0,0.2-0.4,0.3c-0.4,0.1-0.5,0.1-0.8,0.1s-0.8-0.1-0.8-0.1L97,12.6l-0.1,0.2
		c0,0,0.1,0.1,0,0.4c-0.1,0.3,0,0.4-0.3,0.5c-0.3,0.1-0.8,0.2-1.1,0.2c-0.3,0-1.5-0.1-1.5-0.1l-1-0.2l-1.2-0.4L91.2,13L91,13.1
		l-0.6,0.2l-0.7,0.1c0,0-0.9,0.1-1.1,0c-0.2,0-0.7,0-1.2-0.1C87,13.3,86.7,13.2,86.7,13.2L86.7,13.2"/>
	<g>
		<path class="st3" d="M100.7,9.3c-0.2-0.6-0.8-0.9-1.3-1.3c-0.2-0.1-0.5-0.2-0.7-0.4c0.7-0.4,1.3-1.1,1.3-1.8
			c0-0.9-0.8-1.7-1.5-2.1c-0.9-0.6-2-0.9-3-1c-0.6,0-1.2,0.1-1.8,0.1c-0.3,0-0.6-0.1-0.7-0.4c-0.2-0.3,0.3-0.7,0.5-0.8
			c0.4-0.2,0.8-0.3,1.2-0.3c0.1,0,0.1-0.1,0.1-0.1c-1-1.5-3.3-1.2-4.8-0.7c-1.5,0.5-3.6,2.1-2.8,3.9c-0.7,0.1-1.4,0.2-2.1,0.4
			C84.5,4.9,84,5,83.7,5.4c-0.4,0.5-0.3,1.2-0.1,1.8c-0.4,0.3-0.9,0.3-1.3,0.7c-0.4,0.4-0.5,0.9-0.6,1.4c-0.1,1.2,0.7,2.3,1.6,2.9
			c1.2,0.8,2.6,1,4,1.3c1.3,0.2,2.6,0.3,3.9-0.3c0.9,0.4,1.8,0.6,2.8,0.7c0.8,0.1,1.8,0.3,2.6-0.1c0.5-0.3,0.7-0.7,0.5-1.1
			c1,0.1,2.5,0.3,2.5-1.1c0-0.3-0.1-0.5-0.2-0.7C100.2,10.9,101.1,10.3,100.7,9.3z"/>
		<path class="st3" d="M96.6,9.3c0.8,0.3,2,0.7,2.6,1.4c0.7,0.1,1.6-0.2,1.4-1.1c-0.1-0.5-0.6-0.9-1-1.1c-0.7-0.5-1.5-0.8-2.4-1
			c-0.1,0-0.1-0.2,0.1-0.2c0.4,0.1,0.8,0.2,1.2,0.4C99,7.3,99.6,6.7,99.7,6c0.1-0.7-0.4-1.3-0.9-1.7c-1.1-0.9-2.5-1.4-3.9-1.4
			c-0.6,0-2.3,0.5-2.3-0.6c-0.1-0.8,1.1-1.2,1.8-1.2c-0.9-1.2-3-0.9-4.3-0.6c-1.5,0.4-3.7,2-2.8,3.8c0,0,0,0.1,0,0.1c0,0,0,0,0,0
			c-0.6,0.1-1.2,0.2-1.9,0.3C84.7,5,84,5.1,83.8,5.8c-0.2,0.5-0.1,0.9,0,1.3c0,0,0,0,0,0.1c0.2,0.6,0.7,1.1,1.2,1.6
			c1.7,1.6,3.4,3,5.7,3.5c0.1,0,0.1,0.2-0.1,0.2c-1.3-0.3-2.4-0.8-3.5-1.6c-1-0.7-2.1-1.6-2.9-2.6C84,8,83.8,7.7,83.7,7.3
			c-0.3,0.2-0.8,0.2-1.1,0.5c-0.4,0.4-0.6,1-0.7,1.6c0,1.2,0.8,2.2,1.8,2.7c1.1,0.7,2.4,0.9,3.7,1.1c1.3,0.2,2.6,0.3,3.7-0.3
			c0,0,0,0,0,0c0,0,0,0,0,0c0,0,0,0,0,0c0,0,0,0,0.1,0c1.2,0.5,2.6,0.8,3.9,0.9c0.4,0,0.8,0,1.2-0.2c0.3-0.1,0.4-0.2,0.5-0.6
			c0.1-0.4,0-0.6-0.3-0.8c-0.6-0.6-1.6-0.6-2.4-0.5c-0.1,0-0.1-0.2,0-0.2c0.9-0.1,2-0.1,2.7,0.6c0.1,0.1,0.1,0.1,0.2,0.2
			c0.4,0,0.8,0.1,1.3,0.1c0.7,0,1.2-0.5,1-1.2c0-0.2-0.1-0.4-0.3-0.6c0,0,0,0,0,0c-0.6-0.7-1.7-1.1-2.5-1.3
			C96.4,9.4,96.5,9.2,96.6,9.3z"/>
	</g>
	<g>
		<path class="st4" d="M91.6,11.3c-0.5-0.4-0.9-0.8-1.4-1.1c-1.1-0.9-2.4-2-2.6-3.4c-0.1-0.8,0.1-1.6,0.7-2.1
			c0.4-0.3,0.9-0.3,1.4-0.2c0.5,0.1,0.9,0.4,1.2,0.7c0.3,0.3,0.8,1.1,0.7,1.5c-0.1-0.4,0.5-1.2,0.7-1.5c0.3-0.3,0.8-0.6,1.2-0.7
			c0.5-0.1,1-0.1,1.4,0.2c0.6,0.4,0.8,1.3,0.7,2.1c-0.3,1.4-1.5,2.5-2.6,3.4C92.5,10.6,92,10.9,91.6,11.3"/>
	</g>
	<g>
		<path class="st0" d="M83.2,23.4V24c-0.3,0.2-0.6,0.3-0.8,0.3c-0.4,0-0.7-0.1-1-0.4s-0.4-0.6-0.4-1c0-0.4,0.1-0.8,0.4-1.1
			c0.3-0.3,0.6-0.4,1-0.4c0.2,0,0.5,0.1,0.8,0.2v0.6C82.9,22,82.7,22,82.4,22c-0.2,0-0.4,0.1-0.6,0.3s-0.3,0.4-0.3,0.6
			c0,0.3,0.1,0.5,0.2,0.6c0.2,0.2,0.4,0.3,0.6,0.3C82.6,23.7,82.9,23.6,83.2,23.4z"/>
		<path class="st0" d="M84.3,21.5V22c0.1-0.2,0.2-0.4,0.4-0.5c0.1-0.1,0.3-0.2,0.5-0.2c0.1,0,0.1,0,0.2,0L85.2,22
			c-0.1,0-0.2,0-0.2,0c-0.2,0-0.3,0.1-0.5,0.2c-0.1,0.1-0.2,0.3-0.2,0.5v1.5h-0.6v-2.7H84.3z"/>
		<path class="st0" d="M88.5,22.9h-2.3c0,0.3,0.2,0.5,0.3,0.6s0.4,0.2,0.6,0.2c0.3,0,0.6-0.1,0.8-0.4l0.4,0.3
			c-0.3,0.4-0.7,0.6-1.2,0.6c-0.4,0-0.7-0.1-1-0.4c-0.3-0.3-0.4-0.6-0.4-1c0-0.4,0.1-0.7,0.4-1c0.3-0.3,0.6-0.4,1-0.4
			c0.4,0,0.7,0.1,1,0.4C88.4,22.1,88.5,22.5,88.5,22.9z M86.3,22.5h1.6c-0.2-0.4-0.4-0.6-0.8-0.6C86.7,21.9,86.4,22.1,86.3,22.5z"/>
		<path class="st0" d="M91.3,21.5h0.6v2.7h-0.6v-0.5c-0.3,0.4-0.6,0.6-1,0.6c-0.4,0-0.6-0.1-0.9-0.4c-0.2-0.3-0.4-0.6-0.4-1
			c0-0.4,0.1-0.7,0.4-1c0.3-0.3,0.5-0.4,0.9-0.4c0.2,0,0.4,0.1,0.6,0.2c0.2,0.1,0.3,0.3,0.4,0.5V21.5z M91.4,22.8
			c0-0.2-0.1-0.5-0.3-0.6c-0.2-0.2-0.4-0.3-0.6-0.3c-0.2,0-0.4,0.1-0.6,0.3s-0.3,0.4-0.3,0.6c0,0.3,0.1,0.5,0.3,0.7s0.4,0.3,0.6,0.3
			c0.2,0,0.5-0.1,0.6-0.3C91.3,23.3,91.4,23.1,91.4,22.8z"/>
		<path class="st0" d="M92.8,20.7h0.6v0.8H94V22h-0.6v2.2h-0.6V22h-0.4v-0.5h0.4V20.7z"/>
		<path class="st0" d="M94.3,20.6c0-0.1,0-0.2,0.1-0.3c0.1-0.1,0.2-0.1,0.3-0.1c0.1,0,0.2,0,0.3,0.1s0.1,0.2,0.1,0.3
			c0,0.1,0,0.2-0.1,0.3S94.8,21,94.7,21c-0.1,0-0.2,0-0.3-0.1C94.3,20.8,94.3,20.7,94.3,20.6z M94.4,21.5H95v2.7h-0.6V21.5z"/>
		<path class="st0" d="M95.6,22.8c0-0.4,0.1-0.7,0.4-1c0.3-0.3,0.6-0.4,1-0.4c0.4,0,0.7,0.1,1,0.4c0.3,0.3,0.4,0.6,0.4,1
			c0,0.4-0.1,0.7-0.4,1c-0.3,0.3-0.6,0.4-1,0.4c-0.4,0-0.7-0.1-1-0.4C95.8,23.6,95.6,23.2,95.6,22.8z M97.9,22.8
			c0-0.2-0.1-0.4-0.3-0.6C97.5,22,97.3,22,97.1,22c-0.2,0-0.5,0.1-0.6,0.3s-0.3,0.4-0.3,0.6c0,0.2,0.1,0.4,0.3,0.6
			c0.2,0.2,0.4,0.3,0.6,0.3c0.2,0,0.4-0.1,0.6-0.3C97.8,23.3,97.9,23.1,97.9,22.8z"/>
		<path class="st0" d="M98.9,24.2v-2.7h0.5v0.5c0.2-0.2,0.3-0.3,0.4-0.4c0.1-0.1,0.3-0.1,0.4-0.1c0.2,0,0.4,0.1,0.6,0.2
			s0.3,0.4,0.3,0.6v2h-0.6v-1.8c0-0.1,0-0.3-0.1-0.4c-0.1-0.1-0.2-0.1-0.4-0.1c-0.2,0-0.3,0.1-0.5,0.2c-0.1,0.2-0.2,0.4-0.2,0.6v1.5
			H98.9z"/>
		<path class="st0" d="M103.4,21.8l-0.4,0.3c-0.1-0.1-0.2-0.1-0.3-0.2c-0.1,0-0.2-0.1-0.3-0.1c-0.2,0-0.3,0.1-0.3,0.3
			c0,0.1,0.1,0.2,0.4,0.4c0.3,0.1,0.5,0.2,0.6,0.4c0.1,0.1,0.2,0.3,0.2,0.5c0,0.2-0.1,0.4-0.3,0.6c-0.2,0.2-0.4,0.3-0.6,0.3
			c-0.4,0-0.7-0.2-0.9-0.5l0.4-0.2c0.2,0.2,0.3,0.2,0.5,0.2c0.1,0,0.2,0,0.3-0.1c0.1-0.1,0.1-0.1,0.1-0.2c0-0.2-0.2-0.3-0.5-0.4
			c-0.3-0.1-0.5-0.2-0.6-0.4s-0.2-0.3-0.2-0.5c0-0.2,0.1-0.4,0.2-0.6c0.2-0.2,0.4-0.2,0.6-0.2S103.1,21.5,103.4,21.8z"/>
	</g>
</g>
</svg>
